<svg width="50" height="50" viewBox="0 0 50 50" fill="none" xmlns="http://www.w3.org/2000/svg">
<path d="M0 16C0 10.3995 0 7.59921 1.08993 5.46009C2.04867 3.57847 3.57847 2.04867 5.46009 1.08993C7.59921 0 10.3995 0 16 0H34C39.6005 0 42.4008 0 44.5399 1.08993C46.4215 2.04867 47.9513 3.57847 48.9101 5.46009C50 7.59921 50 10.3995 50 16V34C50 39.6005 50 42.4008 48.9101 44.5399C47.9513 46.4215 46.4215 47.9513 44.5399 48.9101C42.4008 50 39.6005 50 34 50H16C10.3995 50 7.59921 50 5.46009 48.9101C3.57847 47.9513 2.04867 46.4215 1.08993 44.5399C0 42.4008 0 39.6005 0 34V16Z" fill="url(#paint0_linear)"/>
<mask id="mask0" style="mask-type:alpha" maskUnits="userSpaceOnUse" x="0" y="0" width="50" height="50">
<path d="M0 16C0 10.3995 0 7.59921 1.08993 5.46009C2.04867 3.57847 3.57847 2.04867 5.46009 1.08993C7.59921 0 10.3995 0 16 0H34C39.6005 0 42.4008 0 44.5399 1.08993C46.4215 2.04867 47.9513 3.57847 48.9101 5.46009C50 7.59921 50 10.3995 50 16V34C50 39.6005 50 42.4008 48.9101 44.5399C47.9513 46.4215 46.4215 47.9513 44.5399 48.9101C42.4008 50 39.6005 50 34 50H16C10.3995 50 7.59921 50 5.46009 48.9101C3.57847 47.9513 2.04867 46.4215 1.08993 44.5399C0 42.4008 0 39.6005 0 34V16Z" fill="url(#paint1_linear)"/>
</mask>
<g mask="url(#mask0)">
<g filter="url(#filter0_d)">
<path d="M19.1948 27.1969C19.4138 14.6032 23.7007 3.87075 25.8721 2.67029e-05L53.1977 -4.94183V19.7675L50.8721 49.4186C45.0581 53.1008 32.6744 58.4303 29.6512 50.2907C26.6279 42.1512 26.4535 32.1706 26.7442 28.1977H20.187C19.6347 28.1977 19.1852 27.7491 19.1948 27.1969Z" fill="url(#paint2_linear)"/>
</g>
</g>
<g filter="url(#filter1_d)">
<rect x="34.3023" y="13.9535" width="2.32558" height="5.23256" rx="1.16279" fill="black"/>
</g>
<g filter="url(#filter2_d)">
<rect x="11.6279" y="13.9535" width="2.32558" height="5.23256" rx="1.16279" fill="black"/>
</g>
<g filter="url(#filter3_d)">
<path fill-rule="evenodd" clip-rule="evenodd" d="M39.2673 32.0674C39.5325 32.2431 39.6144 32.6158 39.4502 32.8997L38.97 32.5815C39.4502 32.8997 39.4498 32.9005 39.4498 32.9005L39.4493 32.9014L39.448 32.9036L39.4444 32.9098L39.4329 32.9289C39.4234 32.9445 39.4101 32.9661 39.3929 32.9931C39.3586 33.0471 39.3087 33.123 39.2422 33.2176C39.1094 33.4068 38.9105 33.671 38.6382 33.9849C38.0935 34.6129 37.255 35.44 36.0644 36.2637C33.6778 37.9146 30.814 39.5349 24.2857 39.5349C14.8256 39.5349 11.401 35.201 9.97864 32.9169C9.80562 32.639 9.87575 32.2636 10.1353 32.0784C10.3948 31.8931 10.7455 31.9682 10.9185 32.2461C12.1318 34.1944 15.407 38.3256 24.2857 38.3256C31.1047 38.3256 33.249 36.7715 35.4513 35.248C36.5551 34.4845 37.3227 33.7245 37.8105 33.162C38.0544 32.8808 38.2284 32.649 38.3393 32.491C38.3948 32.412 38.4345 32.3514 38.4593 32.3124C38.4717 32.293 38.4804 32.2789 38.4854 32.2705L38.4898 32.2632L38.4902 32.2626C38.6545 31.9792 39.0023 31.8917 39.2673 32.0674Z" fill="black"/>
</g>
<defs>
<filter id="filter0_d" x="14.1946" y="-7.94183" width="44.0031" height="69.507" filterUnits="userSpaceOnUse" color-interpolation-filters="sRGB">
<feFlood flood-opacity="0" result="BackgroundImageFix"/>
<feColorMatrix in="SourceAlpha" type="matrix" values="0 0 0 0 0 0 0 0 0 0 0 0 0 0 0 0 0 0 127 0" result="hardAlpha"/>
<feOffset dy="2"/>
<feGaussianBlur stdDeviation="2.5"/>
<feColorMatrix type="matrix" values="0 0 0 0 0 0 0 0 0 0 0 0 0 0 0 0 0 0 0.4 0"/>
<feBlend mode="normal" in2="BackgroundImageFix" result="effect1_dropShadow"/>
<feBlend mode="normal" in="SourceGraphic" in2="effect1_dropShadow" result="shape"/>
</filter>
<filter id="filter1_d" x="34.3023" y="13.9535" width="2.32558" height="6.23256" filterUnits="userSpaceOnUse" color-interpolation-filters="sRGB">
<feFlood flood-opacity="0" result="BackgroundImageFix"/>
<feColorMatrix in="SourceAlpha" type="matrix" values="0 0 0 0 0 0 0 0 0 0 0 0 0 0 0 0 0 0 127 0" result="hardAlpha"/>
<feOffset dy="1"/>
<feColorMatrix type="matrix" values="0 0 0 0 1 0 0 0 0 1 0 0 0 0 1 0 0 0 0.6 0"/>
<feBlend mode="normal" in2="BackgroundImageFix" result="effect1_dropShadow"/>
<feBlend mode="normal" in="SourceGraphic" in2="effect1_dropShadow" result="shape"/>
</filter>
<filter id="filter2_d" x="11.6279" y="13.9535" width="2.32558" height="6.23256" filterUnits="userSpaceOnUse" color-interpolation-filters="sRGB">
<feFlood flood-opacity="0" result="BackgroundImageFix"/>
<feColorMatrix in="SourceAlpha" type="matrix" values="0 0 0 0 0 0 0 0 0 0 0 0 0 0 0 0 0 0 127 0" result="hardAlpha"/>
<feOffset dy="1"/>
<feColorMatrix type="matrix" values="0 0 0 0 1 0 0 0 0 1 0 0 0 0 1 0 0 0 0.3 0"/>
<feBlend mode="normal" in2="BackgroundImageFix" result="effect1_dropShadow"/>
<feBlend mode="normal" in="SourceGraphic" in2="effect1_dropShadow" result="shape"/>
</filter>
<filter id="filter3_d" x="9.88373" y="31.9767" width="29.6512" height="8.55814" filterUnits="userSpaceOnUse" color-interpolation-filters="sRGB">
<feFlood flood-opacity="0" result="BackgroundImageFix"/>
<feColorMatrix in="SourceAlpha" type="matrix" values="0 0 0 0 0 0 0 0 0 0 0 0 0 0 0 0 0 0 127 0" result="hardAlpha"/>
<feOffset dy="1"/>
<feColorMatrix type="matrix" values="0 0 0 0 1 0 0 0 0 1 0 0 0 0 1 0 0 0 0.2 0"/>
<feBlend mode="normal" in2="BackgroundImageFix" result="effect1_dropShadow"/>
<feBlend mode="normal" in="SourceGraphic" in2="effect1_dropShadow" result="shape"/>
</filter>
<linearGradient id="paint0_linear" x1="18.0233" y1="4.06977" x2="22.6744" y2="48.5465" gradientUnits="userSpaceOnUse">
<stop stop-color="#19CBF9"/>
<stop offset="1" stop-color="#2867D8"/>
</linearGradient>
<linearGradient id="paint1_linear" x1="25" y1="0" x2="25" y2="50" gradientUnits="userSpaceOnUse">
<stop stop-color="#18CDF8"/>
<stop offset="1" stop-color="#186CF2"/>
</linearGradient>
<linearGradient id="paint2_linear" x1="29.3605" y1="4.65119" x2="36.9186" y2="47.3837" gradientUnits="userSpaceOnUse">
<stop stop-color="#EAECEB"/>
<stop offset="1" stop-color="#D2DCE5"/>
</linearGradient>
</defs>
</svg>
