<svg width="50" height="50" viewBox="0 0 50 50" fill="none" xmlns="http://www.w3.org/2000/svg">
<mask id="mask0" style="mask-type:alpha" maskUnits="userSpaceOnUse" x="0" y="0" width="50" height="50">
<path d="M0 16C0 10.3995 0 7.59921 1.08993 5.46009C2.04867 3.57847 3.57847 2.04867 5.46009 1.08993C7.59921 0 10.3995 0 16 0H34C39.6005 0 42.4008 0 44.5399 1.08993C46.4215 2.04867 47.9513 3.57847 48.9101 5.46009C50 7.59921 50 10.3995 50 16V34C50 39.6005 50 42.4008 48.9101 44.5399C47.9513 46.4215 46.4215 47.9513 44.5399 48.9101C42.4008 50 39.6005 50 34 50H16C10.3995 50 7.59921 50 5.46009 48.9101C3.57847 47.9513 2.04867 46.4215 1.08993 44.5399C0 42.4008 0 39.6005 0 34V16Z" fill="#F0EFEB"/>
</mask>
<g mask="url(#mask0)">
<path d="M0 16C0 10.3995 0 7.59921 1.08993 5.46009C2.04867 3.57847 3.57847 2.04867 5.46009 1.08993C7.59921 0 10.3995 0 16 0H34C39.6005 0 42.4008 0 44.5399 1.08993C46.4215 2.04867 47.9513 3.57847 48.9101 5.46009C50 7.59921 50 10.3995 50 16V34C50 39.6005 50 42.4008 48.9101 44.5399C47.9513 46.4215 46.4215 47.9513 44.5399 48.9101C42.4008 50 39.6005 50 34 50H16C10.3995 50 7.59921 50 5.46009 48.9101C3.57847 47.9513 2.04867 46.4215 1.08993 44.5399C0 42.4008 0 39.6005 0 34V16Z" fill="#E0E0D4"/>
<path d="M13.9535 22.3838V-2.03485H50.8721V46.8024L13.9535 22.3838Z" fill="#86E359"/>
<path d="M-2.61628 51.7442V16.2791L10.4651 18.8953V51.7442H-2.61628Z" fill="#FCC9D0"/>
<g filter="url(#filter0_di)">
<path d="M-3.41318 15.5533C-5.70238 13.7895 -6.12832 10.5039 -4.36456 8.21472C-2.60079 5.92552 0.68479 5.49958 2.97399 7.26335L48.7448 42.5285C51.034 44.2923 51.4599 47.5779 49.6961 49.8671C47.9324 52.1563 44.6468 52.5822 42.3576 50.8185L-3.41318 15.5533Z" fill="url(#paint0_linear)"/>
</g>
<g filter="url(#filter1_ddi)">
<path fill-rule="evenodd" clip-rule="evenodd" d="M34.3023 -1.16278C34.3023 0.898668 34.7084 2.93993 35.4972 4.84446C36.2861 6.74899 37.4424 8.47949 38.9001 9.93715C40.3577 11.3948 42.0882 12.5511 43.9928 13.34C45.8973 14.1289 47.9386 14.5349 50 14.5349L50 25C46.5643 25 43.1622 24.3233 39.9879 23.0085C36.8137 21.6937 33.9296 19.7665 31.5001 17.3371C29.0707 14.9077 27.1435 12.0235 25.8287 8.84929C24.5139 5.67507 23.8372 2.27297 23.8372 -1.16278H34.3023Z" fill="#F1F5E7"/>
</g>
<g filter="url(#filter2_d)">
<path d="M7.55814 5.23256C7.55814 2.3427 9.90083 0 12.7907 0C15.6806 0 18.0233 2.3427 18.0233 5.23256V47.093C18.0233 49.9829 15.6806 52.3256 12.7907 52.3256C9.90083 52.3256 7.55814 49.9829 7.55814 47.093V5.23256Z" fill="#FCFCFA"/>
</g>
<g filter="url(#filter3_i)">
<path d="M9.88372 -1.74421C9.88372 -3.34969 11.1852 -4.65118 12.7907 -4.65118C14.3962 -4.65118 15.6977 -3.34969 15.6977 -1.74421V28.4883C15.6977 30.0938 14.3962 31.3953 12.7907 31.3953C11.1852 31.3953 9.88372 30.0938 9.88372 28.4883V-1.74421Z" fill="url(#paint1_linear)"/>
</g>
<g filter="url(#filter4_di)">
<circle cx="12.7907" cy="30.2325" r="8.72093" fill="url(#paint2_linear)"/>
<circle cx="12.7907" cy="30.2325" r="5.72093" stroke="url(#paint3_linear)" stroke-width="6"/>
</g>
<g filter="url(#filter5_i)">
<circle cx="12.7907" cy="30.2326" r="5.23256" fill="url(#paint4_linear)"/>
</g>
<path d="M47.0002 36.6279C47.8369 42.1031 42.877 47.093 37.7907 47.093C32.7044 47.093 27.7445 42.1031 28.5812 36.6279C28.8013 35.1874 29.8624 33.1395 29.8624 33.1395C29.8624 33.1395 31.651 34.593 33.6046 34.593C35.5581 34.593 37.7907 33.1395 37.7907 33.1395C37.7907 33.1395 40.3024 34.593 41.9768 34.593C43.6513 34.593 45.719 33.1395 45.719 33.1395C45.719 33.1395 46.7801 35.1874 47.0002 36.6279Z" fill="#0E73A9"/>
<path d="M29.4185 32.9095L29.8624 33.1395C29.4185 32.9095 29.4185 32.9096 29.4184 32.9096L29.4184 32.9098L29.4181 32.9102L29.4174 32.9117L29.4147 32.9169L29.405 32.9358C29.3967 32.9522 29.3846 32.976 29.3693 33.0065C29.3388 33.0676 29.2952 33.1557 29.2424 33.2657C29.1369 33.4855 28.994 33.7939 28.8439 34.1487C28.5482 34.8475 28.2069 35.7674 28.087 36.5524C27.6417 39.4656 28.7419 42.2289 30.5963 44.2515C32.4478 46.271 35.0875 47.593 37.7907 47.593C40.4939 47.593 43.1336 46.271 44.9851 44.2515C46.8395 42.2289 47.9397 39.4656 47.4944 36.5524C47.3745 35.7674 47.0332 34.8475 46.7375 34.1487C46.5874 33.7939 46.4445 33.4855 46.339 33.2657C46.2862 33.1557 46.2426 33.0676 46.2121 33.0065C46.1968 32.976 46.1847 32.9522 46.1764 32.9358L46.1667 32.9169L46.164 32.9117L46.1633 32.9102L46.163 32.9098L46.163 32.9096C46.1629 32.9096 46.1629 32.9095 45.719 33.1395L46.1629 32.9095L45.8996 32.4014L45.4316 32.7303L45.4316 32.7303L45.4315 32.7304L45.4314 32.7305L45.4311 32.7307L45.4279 32.7329L45.4129 32.7432C45.3991 32.7527 45.378 32.767 45.3501 32.7855C45.2943 32.8227 45.2115 32.8765 45.1064 32.9416C44.896 33.0719 44.5986 33.2457 44.2521 33.4191C43.5418 33.7745 42.693 34.093 41.9768 34.093C41.2507 34.093 40.2862 33.7684 39.4549 33.4076C39.0497 33.2317 38.6943 33.0555 38.4403 32.9232C38.3135 32.8571 38.2124 32.8023 38.1437 32.7643C38.1093 32.7453 38.083 32.7306 38.0656 32.7207L38.0464 32.7098L38.042 32.7072L38.0411 32.7068L38.0411 32.7067L38.041 32.7067L38.041 32.7067L37.7753 32.5529L37.5182 32.7203L37.5181 32.7204L37.518 32.7204L37.5179 32.7205L37.5176 32.7207L37.5141 32.7229L37.4978 32.7333C37.4829 32.7427 37.46 32.7571 37.4297 32.7756C37.3691 32.8128 37.279 32.8668 37.1643 32.9319C36.9346 33.0624 36.6083 33.2367 36.2239 33.4108C35.4425 33.7647 34.4741 34.093 33.6046 34.093C32.7434 34.093 31.8917 33.7696 31.2336 33.4237C30.9088 33.253 30.6412 33.0821 30.4557 32.9546C30.3631 32.891 30.2916 32.8385 30.2441 32.8027C30.2204 32.7848 30.2027 32.7712 30.1915 32.7624L30.1796 32.753L30.1776 32.7513L30.1774 32.7512L30.1774 32.7512L30.1773 32.7511L29.7011 32.3641L29.4185 32.9095Z" stroke="#3A7C7A" stroke-opacity="0.77"/>
<path d="M28.1449 46.6279H33.7791V45.3388H30.2665V45.2744L31.8885 43.7919C33.2259 42.562 33.6717 41.9496 33.6717 41.0097V40.999C33.6717 39.6777 32.5438 38.7431 30.9056 38.7431C29.2674 38.7431 28.0536 39.769 28.0536 41.2299V41.2729H29.5575L29.5628 41.2245C29.5843 40.5263 30.1214 40.0053 30.9164 40.0053C31.6039 40.0053 32.0873 40.4565 32.0926 41.0903V41.101C32.0926 41.6381 31.8832 42.0195 30.8841 42.954L28.1449 45.5161V46.6279ZM37.8075 46.7621C39.6551 46.7621 40.9281 45.8437 40.9281 44.5117V44.5009C40.9281 43.4965 40.1815 42.7553 39.1449 42.5512V42.519C40.0365 42.2988 40.6488 41.6489 40.6488 40.8217V40.811C40.6488 39.6132 39.4779 38.7431 37.8075 38.7431C36.1317 38.7431 34.9662 39.6132 34.9662 40.811V40.8217C34.9662 41.6489 35.5731 42.2988 36.4701 42.519V42.5512C35.4281 42.7553 34.6815 43.4965 34.6815 44.5009V44.5117C34.6815 45.8437 35.9598 46.7621 37.8075 46.7621ZM37.8075 42.0302C37.077 42.0302 36.5667 41.5952 36.5667 40.9721V40.9614C36.5667 40.3437 37.0824 39.914 37.8075 39.914C38.5326 39.914 39.0428 40.3437 39.0428 40.9614V40.9721C39.0428 41.5952 38.5379 42.0302 37.8075 42.0302ZM37.8075 45.5805C36.9588 45.5805 36.3626 45.0864 36.3626 44.4042V44.3935C36.3626 43.706 36.9535 43.2065 37.8075 43.2065C38.6615 43.2065 39.2469 43.706 39.2469 44.3935V44.4042C39.2469 45.0864 38.6507 45.5805 37.8075 45.5805ZM44.9564 46.7621C46.9222 46.7621 48.1146 45.2206 48.1146 42.7553V42.7446C48.1146 40.2792 46.9222 38.7431 44.9564 38.7431C42.9906 38.7431 41.7982 40.2792 41.7982 42.7446V42.7553C41.7982 45.2206 42.9906 46.7621 44.9564 46.7621ZM44.9564 45.4623C43.9896 45.4623 43.4364 44.4579 43.4364 42.7553V42.7446C43.4364 41.0419 43.9896 40.0429 44.9564 40.0429C45.9232 40.0429 46.4764 41.0419 46.4764 42.7446V42.7553C46.4764 44.4579 45.9232 45.4623 44.9564 45.4623Z" fill="white"/>
<path d="M37.7907 33.1395C37.7907 33.1395 35.5356 34.593 33.5624 34.593C31.5891 34.593 29.7825 33.1395 29.7825 33.1395C29.7825 33.1395 28.7107 35.1874 28.4884 36.6279H47.093C46.8707 35.1874 45.7989 33.1395 45.7989 33.1395C45.7989 33.1395 43.7104 34.593 42.019 34.593C40.3277 34.593 37.7907 33.1395 37.7907 33.1395Z" fill="#A9373F"/>
<path d="M45.5156 33.8634C45.6036 34.0514 45.7082 34.2823 45.8165 34.5384C46.1065 35.2236 46.4058 36.048 46.5059 36.7034C46.8974 39.2654 45.9359 41.7347 44.248 43.5758C42.5571 45.42 40.1737 46.593 37.7907 46.593C35.4077 46.593 33.0242 45.42 31.3334 43.5758C29.6454 41.7347 28.6839 39.2654 29.0755 36.7034C29.1756 36.048 29.4749 35.2236 29.7649 34.5384C29.8683 34.2938 29.9684 34.0721 30.0538 33.889C30.2465 34.0148 30.4885 34.1618 30.7683 34.3089C31.4929 34.6897 32.5122 35.093 33.6046 35.093C34.6886 35.093 35.8132 34.6946 36.6365 34.3217C37.0545 34.1324 37.4084 33.9434 37.6583 33.8014C37.7114 33.7712 37.7598 33.7431 37.8033 33.7176C37.8551 33.7453 37.9137 33.7764 37.9783 33.8101C38.2476 33.9503 38.6248 34.1374 39.0568 34.3249C39.8999 34.6909 41.0285 35.093 41.9768 35.093C42.9351 35.093 43.9574 34.6848 44.6995 34.3134C45.0185 34.1538 45.2982 33.9946 45.5156 33.8634Z" stroke="white"/>
<path d="M28.4884 36.6279H46.5116" stroke="white"/>
</g>
<defs>
<filter id="filter0_di" x="-12.4524" y="3.17548" width="70.2364" height="59.7308" filterUnits="userSpaceOnUse" color-interpolation-filters="sRGB">
<feFlood flood-opacity="0" result="BackgroundImageFix"/>
<feColorMatrix in="SourceAlpha" type="matrix" values="0 0 0 0 0 0 0 0 0 0 0 0 0 0 0 0 0 0 127 0" result="hardAlpha"/>
<feOffset dy="4"/>
<feGaussianBlur stdDeviation="3.5"/>
<feColorMatrix type="matrix" values="0 0 0 0 0 0 0 0 0 0 0 0 0 0 0 0 0 0 0.15 0"/>
<feBlend mode="normal" in2="BackgroundImageFix" result="effect1_dropShadow"/>
<feBlend mode="normal" in="SourceGraphic" in2="effect1_dropShadow" result="shape"/>
<feColorMatrix in="SourceAlpha" type="matrix" values="0 0 0 0 0 0 0 0 0 0 0 0 0 0 0 0 0 0 127 0" result="hardAlpha"/>
<feOffset/>
<feGaussianBlur stdDeviation="2"/>
<feComposite in2="hardAlpha" operator="arithmetic" k2="-1" k3="1"/>
<feColorMatrix type="matrix" values="0 0 0 0 0.754167 0 0 0 0 0.610614 0 0 0 0 0.0628472 0 0 0 1 0"/>
<feBlend mode="normal" in2="shape" result="effect2_innerShadow"/>
</filter>
<filter id="filter1_ddi" x="15.8372" y="-4.16278" width="42.1628" height="42.1628" filterUnits="userSpaceOnUse" color-interpolation-filters="sRGB">
<feFlood flood-opacity="0" result="BackgroundImageFix"/>
<feColorMatrix in="SourceAlpha" type="matrix" values="0 0 0 0 0 0 0 0 0 0 0 0 0 0 0 0 0 0 127 0" result="hardAlpha"/>
<feOffset dy="5"/>
<feGaussianBlur stdDeviation="4"/>
<feColorMatrix type="matrix" values="0 0 0 0 0 0 0 0 0 0 0 0 0 0 0 0 0 0 0.26 0"/>
<feBlend mode="normal" in2="BackgroundImageFix" result="effect1_dropShadow"/>
<feColorMatrix in="SourceAlpha" type="matrix" values="0 0 0 0 0 0 0 0 0 0 0 0 0 0 0 0 0 0 127 0" result="hardAlpha"/>
<feOffset dy="1"/>
<feGaussianBlur stdDeviation="2"/>
<feColorMatrix type="matrix" values="0 0 0 0 0 0 0 0 0 0 0 0 0 0 0 0 0 0 0.15 0"/>
<feBlend mode="normal" in2="effect1_dropShadow" result="effect2_dropShadow"/>
<feBlend mode="normal" in="SourceGraphic" in2="effect2_dropShadow" result="shape"/>
<feColorMatrix in="SourceAlpha" type="matrix" values="0 0 0 0 0 0 0 0 0 0 0 0 0 0 0 0 0 0 127 0" result="hardAlpha"/>
<feOffset dy="-1"/>
<feGaussianBlur stdDeviation="2"/>
<feComposite in2="hardAlpha" operator="arithmetic" k2="-1" k3="1"/>
<feColorMatrix type="matrix" values="0 0 0 0 0 0 0 0 0 0 0 0 0 0 0 0 0 0 0.16 0"/>
<feBlend mode="normal" in2="shape" result="effect3_innerShadow"/>
</filter>
<filter id="filter2_d" x="1.55814" y="-2" width="22.4651" height="64.3256" filterUnits="userSpaceOnUse" color-interpolation-filters="sRGB">
<feFlood flood-opacity="0" result="BackgroundImageFix"/>
<feColorMatrix in="SourceAlpha" type="matrix" values="0 0 0 0 0 0 0 0 0 0 0 0 0 0 0 0 0 0 127 0" result="hardAlpha"/>
<feOffset dy="4"/>
<feGaussianBlur stdDeviation="3"/>
<feColorMatrix type="matrix" values="0 0 0 0 0 0 0 0 0 0 0 0 0 0 0 0 0 0 0.45 0"/>
<feBlend mode="normal" in2="BackgroundImageFix" result="effect1_dropShadow"/>
<feBlend mode="normal" in="SourceGraphic" in2="effect1_dropShadow" result="shape"/>
</filter>
<filter id="filter3_i" x="9.88372" y="-4.65118" width="5.81395" height="36.0465" filterUnits="userSpaceOnUse" color-interpolation-filters="sRGB">
<feFlood flood-opacity="0" result="BackgroundImageFix"/>
<feBlend mode="normal" in="SourceGraphic" in2="BackgroundImageFix" result="shape"/>
<feColorMatrix in="SourceAlpha" type="matrix" values="0 0 0 0 0 0 0 0 0 0 0 0 0 0 0 0 0 0 127 0" result="hardAlpha"/>
<feOffset/>
<feGaussianBlur stdDeviation="1.5"/>
<feComposite in2="hardAlpha" operator="arithmetic" k2="-1" k3="1"/>
<feColorMatrix type="matrix" values="0 0 0 0 0 0 0 0 0 0 0 0 0 0 0 0 0 0 0.95 0"/>
<feBlend mode="normal" in2="shape" result="effect1_innerShadow"/>
</filter>
<filter id="filter4_di" x="-1.93023" y="17.5116" width="29.4419" height="29.4419" filterUnits="userSpaceOnUse" color-interpolation-filters="sRGB">
<feFlood flood-opacity="0" result="BackgroundImageFix"/>
<feColorMatrix in="SourceAlpha" type="matrix" values="0 0 0 0 0 0 0 0 0 0 0 0 0 0 0 0 0 0 127 0" result="hardAlpha"/>
<feOffset dy="2"/>
<feGaussianBlur stdDeviation="3"/>
<feColorMatrix type="matrix" values="0 0 0 0 0 0 0 0 0 0 0 0 0 0 0 0 0 0 0.35 0"/>
<feBlend mode="normal" in2="BackgroundImageFix" result="effect1_dropShadow"/>
<feBlend mode="normal" in="SourceGraphic" in2="effect1_dropShadow" result="shape"/>
<feColorMatrix in="SourceAlpha" type="matrix" values="0 0 0 0 0 0 0 0 0 0 0 0 0 0 0 0 0 0 127 0" result="hardAlpha"/>
<feOffset dy="4"/>
<feGaussianBlur stdDeviation="4.5"/>
<feComposite in2="hardAlpha" operator="arithmetic" k2="-1" k3="1"/>
<feColorMatrix type="matrix" values="0 0 0 0 0 0 0 0 0 0 0 0 0 0 0 0 0 0 0.9 0"/>
<feBlend mode="normal" in2="shape" result="effect2_innerShadow"/>
</filter>
<filter id="filter5_i" x="7.55814" y="25" width="10.4651" height="11.4651" filterUnits="userSpaceOnUse" color-interpolation-filters="sRGB">
<feFlood flood-opacity="0" result="BackgroundImageFix"/>
<feBlend mode="normal" in="SourceGraphic" in2="BackgroundImageFix" result="shape"/>
<feColorMatrix in="SourceAlpha" type="matrix" values="0 0 0 0 0 0 0 0 0 0 0 0 0 0 0 0 0 0 127 0" result="hardAlpha"/>
<feOffset dy="1"/>
<feGaussianBlur stdDeviation="1.5"/>
<feComposite in2="hardAlpha" operator="arithmetic" k2="-1" k3="1"/>
<feColorMatrix type="matrix" values="0 0 0 0 0 0 0 0 0 0.247601 0 0 0 0 0.4625 0 0 0 1 0"/>
<feBlend mode="normal" in2="shape" result="effect1_innerShadow"/>
</filter>
<linearGradient id="paint0_linear" x1="31.686" y1="30.2325" x2="23.8372" y2="40.9884" gradientUnits="userSpaceOnUse">
<stop stop-color="#FFEF87"/>
<stop offset="0.137131" stop-color="#F9E03E"/>
<stop offset="1" stop-color="#FBB837"/>
</linearGradient>
<linearGradient id="paint1_linear" x1="12.7907" y1="-4.65118" x2="12.7907" y2="31.3953" gradientUnits="userSpaceOnUse">
<stop stop-color="#4CABEC"/>
<stop offset="0.796875" stop-color="#0082F7"/>
</linearGradient>
<linearGradient id="paint2_linear" x1="12.7907" y1="24.6828" x2="12.7907" y2="38.9535" gradientUnits="userSpaceOnUse">
<stop stop-color="#1381DA"/>
<stop offset="1" stop-color="#007AD6"/>
</linearGradient>
<linearGradient id="paint3_linear" x1="12.7907" y1="21.5116" x2="12.7907" y2="38.9535" gradientUnits="userSpaceOnUse">
<stop stop-color="white"/>
<stop offset="1" stop-color="#EEFBFF"/>
</linearGradient>
<linearGradient id="paint4_linear" x1="12.7907" y1="26.9027" x2="12.7907" y2="35.4651" gradientUnits="userSpaceOnUse">
<stop stop-color="#398DE9"/>
<stop offset="1" stop-color="#007AD6"/>
</linearGradient>
</defs>
</svg>
