<svg width="50" height="50" viewBox="0 0 50 50" fill="none" xmlns="http://www.w3.org/2000/svg">
<rect width="50" height="50" rx="10" fill="#FEFFFB"/>
<mask id="mask0" style="mask-type:alpha" maskUnits="userSpaceOnUse" x="0" y="0" width="50" height="50">
<rect width="50" height="50" rx="10" fill="#FEFFFB"/>
</mask>
<g mask="url(#mask0)">
<path d="M17.4419 13.6628C15.6977 13.6628 14.8256 12.2093 15.1163 10.7558C15.3641 9.51687 14.772 8.42243 14.0049 9.42639C13.3225 10.3195 12.9178 11.3199 12.7907 12.2093C12.6263 13.3604 12.7907 15.407 14.8256 15.9884C16.9543 16.5966 17.732 13.6628 17.4419 13.6628Z" fill="#FDA72C"/>
<path d="M11.6279 13.6628C9.88373 13.6628 9.01164 12.2093 9.30234 10.7558C9.55013 9.51687 8.95801 8.42243 8.19091 9.42639C7.50853 10.3195 7.10381 11.3199 6.97675 12.2093C6.81231 13.3604 6.97675 15.407 9.01164 15.9884C11.1403 16.5966 11.918 13.6628 11.6279 13.6628Z" fill="#FDA72C"/>
<rect x="5.73256" y="5.15118" width="12.9535" height="12.9535" rx="6.47674" stroke="#EEE4D8"/>
<rect x="1.74419" y="45.9302" width="46.5116" height="0.581398" rx="0.290699" fill="#EEE4D8"/>
<rect x="-1.16279" y="41.2791" width="52.3256" height="0.581398" rx="0.290699" fill="#EEE4D8"/>
<rect x="-1.16279" y="36.6279" width="52.3256" height="0.581394" rx="0.290697" fill="#EEE4D8"/>
<rect x="-1.16279" y="31.9767" width="52.3256" height="0.581396" rx="0.290698" fill="#EEE4D8"/>
<rect x="-1.16279" y="27.3256" width="52.3256" height="0.581392" rx="0.290696" fill="#EEE4D8"/>
<rect x="-1.16279" y="22.6744" width="52.3256" height="0.581396" rx="0.290698" fill="#EEE4D8"/>
<rect x="22.093" y="18.0233" width="29.0698" height="0.581394" rx="0.290697" fill="#EEE4D8"/>
<rect x="22.093" y="13.3721" width="29.0698" height="0.581394" rx="0.290697" fill="#EEE4D8"/>
<rect x="22.093" y="8.72095" width="29.0698" height="0.581394" rx="0.290697" fill="#EEE4D8"/>
<rect x="22.093" y="4.06976" width="29.0698" height="0.581395" rx="0.290698" fill="#EEE4D8"/>
<g filter="url(#filter0_d)">
<path d="M18.3524 40.1628C17.5465 39.5847 16.4116 40.0058 16.1779 40.9698C15.8542 42.3049 17.4481 43.2578 18.4709 42.3406C19.1366 41.7437 19.0789 40.684 18.3524 40.1628Z" fill="url(#paint0_linear)"/>
<path d="M19.9916 31.9225C20.6337 30.8102 22.056 30.429 23.1684 31.0712C24.2807 31.7134 24.6618 33.1357 24.0196 34.248L20.8885 39.6712C20.2463 40.7835 18.824 41.1647 17.7117 40.5225C16.5994 39.8803 16.2183 38.458 16.8605 37.3457L19.9916 31.9225Z" fill="url(#paint1_linear)"/>
<rect x="26.1998" y="20.9302" width="4.65116" height="10.5391" rx="2.32558" transform="rotate(30 26.1998 20.9302)" fill="url(#paint2_linear)"/>
<path opacity="0.2" d="M31.5849 12.3862C32.1109 11.5903 33.1523 11.319 33.9998 11.7571C34.9153 12.2303 35.2741 13.3558 34.8015 14.2717L30.9385 21.7576C30.3311 22.9347 28.8633 23.3654 27.7162 22.7031C26.5586 22.0348 26.2035 20.5292 26.9405 19.4141L31.5849 12.3862Z" fill="black" fill-opacity="0.62"/>
<path d="M34.4806 7.34843C35.0405 6.4757 36.1684 6.16555 37.0958 6.62927C38.1147 7.13871 38.5146 8.3869 37.9815 9.39361L31.7634 21.1363C31.0783 22.4301 29.4562 22.8967 28.1883 22.1647C26.9115 21.4275 26.5094 19.773 27.3056 18.532L34.4806 7.34843Z" fill="url(#paint3_linear)"/>
<g filter="url(#filter1_d)">
<path d="M34.487 6.34459C34.6425 6.08607 34.9614 5.97687 35.2428 6.08578C35.5946 6.22197 35.7446 6.63793 35.5606 6.96728L29.1701 18.4063C28.9438 18.8113 28.4299 18.9529 28.0281 18.721C27.6252 18.4883 27.4914 17.9704 27.7313 17.5718L34.487 6.34459Z" fill="url(#paint4_linear)"/>
</g>
</g>
</g>
<defs>
<filter id="filter0_d" x="11.1353" y="4.04382" width="32.0826" height="46.6601" filterUnits="userSpaceOnUse" color-interpolation-filters="sRGB">
<feFlood flood-opacity="0" result="BackgroundImageFix"/>
<feColorMatrix in="SourceAlpha" type="matrix" values="0 0 0 0 0 0 0 0 0 0 0 0 0 0 0 0 0 0 127 0" result="hardAlpha"/>
<feOffset dy="3"/>
<feGaussianBlur stdDeviation="2.5"/>
<feColorMatrix type="matrix" values="0 0 0 0 0 0 0 0 0 0 0 0 0 0 0 0 0 0 0.35 0"/>
<feBlend mode="normal" in2="BackgroundImageFix" result="effect1_dropShadow"/>
<feBlend mode="normal" in="SourceGraphic" in2="effect1_dropShadow" result="shape"/>
</filter>
<filter id="filter1_d" x="25.6121" y="5.04382" width="12.0275" height="16.7887" filterUnits="userSpaceOnUse" color-interpolation-filters="sRGB">
<feFlood flood-opacity="0" result="BackgroundImageFix"/>
<feColorMatrix in="SourceAlpha" type="matrix" values="0 0 0 0 0 0 0 0 0 0 0 0 0 0 0 0 0 0 127 0" result="hardAlpha"/>
<feOffset dy="1"/>
<feGaussianBlur stdDeviation="1"/>
<feColorMatrix type="matrix" values="0 0 0 0 0 0 0 0 0 0 0 0 0 0 0 0 0 0 0.25 0"/>
<feBlend mode="normal" in2="BackgroundImageFix" result="effect1_dropShadow"/>
<feBlend mode="normal" in="SourceGraphic" in2="effect1_dropShadow" result="shape"/>
</filter>
<linearGradient id="paint0_linear" x1="18.8372" y1="43.4024" x2="15.4887" y2="39.9795" gradientUnits="userSpaceOnUse">
<stop offset="0.102562" stop-color="#626B6A"/>
<stop offset="0.435624" stop-color="#F7FFFF"/>
</linearGradient>
<linearGradient id="paint1_linear" x1="21.5829" y1="37.9579" x2="17.2209" y2="35.3442" gradientUnits="userSpaceOnUse">
<stop stop-color="#171813"/>
<stop offset="0.666667" stop-color="#747474"/>
<stop offset="0.984375" stop-color="#232323"/>
</linearGradient>
<linearGradient id="paint2_linear" x1="30.6242" y1="25.7605" x2="27.2346" y2="25.7035" gradientUnits="userSpaceOnUse">
<stop stop-color="#995100"/>
<stop offset="0.0729167" stop-color="#EF7E00"/>
<stop offset="0.588542" stop-color="#EAB326"/>
<stop offset="1" stop-color="#FFEB72"/>
</linearGradient>
<linearGradient id="paint3_linear" x1="34.8837" y1="14.5349" x2="31.7528" y2="12.9787" gradientUnits="userSpaceOnUse">
<stop stop-color="#763E00"/>
<stop offset="0.0572917" stop-color="#BF6500"/>
<stop offset="0.260417" stop-color="#EF7E00"/>
<stop offset="0.588542" stop-color="#EAB326"/>
<stop offset="1" stop-color="#FFEB72"/>
</linearGradient>
<linearGradient id="paint4_linear" x1="32.6248" y1="12.2817" x2="31.5603" y2="11.6608" gradientUnits="userSpaceOnUse">
<stop stop-color="#D2C79A"/>
<stop offset="0.588542" stop-color="#EEEEEE"/>
<stop offset="1" stop-color="#E6E6E6"/>
</linearGradient>
</defs>
</svg>
