<svg width="50" height="50" viewBox="0 0 50 50" fill="none" xmlns="http://www.w3.org/2000/svg">
<rect width="50" height="50" rx="10" fill="url(#paint0_linear)"/>
<g filter="url(#filter0_di)">
<circle cx="25" cy="25" r="21.5116" fill="url(#paint1_linear)"/>
</g>
<circle cx="25" cy="25" r="18.5366" transform="rotate(4.84342 25 25)" stroke="white" stroke-width="3" stroke-dasharray="1 5"/>
<circle cx="25" cy="25" r="17.0366" transform="rotate(-10.1566 25 25)" stroke="white" stroke-width="6" stroke-dasharray="1 5"/>
<g filter="url(#filter1_d)">
<mask id="mask0" style="mask-type:alpha" maskUnits="userSpaceOnUse" x="22" y="12" width="18" height="16">
<path d="M22.6744 22.9651L39.2442 12.2093L26.1628 27.0349L22.6744 22.9651Z" fill="#C4C4C4"/>
</mask>
<g mask="url(#mask0)">
<path d="M22.6744 22.9651L39.2442 12.2093L26.1628 27.0349L22.6744 22.9651Z" fill="#D27067"/>
<path d="M23.5465 25.8721L39.2442 12.2093L26.1628 27.0349L23.5465 25.8721Z" fill="#B63027"/>
</g>
<mask id="mask1" style="mask-type:alpha" maskUnits="userSpaceOnUse" x="9" y="22" width="18" height="16">
<path d="M26.4535 26.7442L9.88372 37.5L22.9651 22.6744L26.4535 26.7442Z" fill="#C4C4C4"/>
</mask>
<g mask="url(#mask1)">
<path d="M26.4535 26.7442L9.88372 37.5L22.9651 22.6744L26.4535 26.7442Z" fill="#CEC4CC"/>
<path d="M25.5814 23.8372L9.88372 37.5L22.9651 22.6744L25.5814 23.8372Z" fill="#FCFFF6"/>
</g>
</g>
<defs>
<filter id="filter0_di" x="3.48837" y="3.48834" width="43.0233" height="45.0233" filterUnits="userSpaceOnUse" color-interpolation-filters="sRGB">
<feFlood flood-opacity="0" result="BackgroundImageFix"/>
<feColorMatrix in="SourceAlpha" type="matrix" values="0 0 0 0 0 0 0 0 0 0 0 0 0 0 0 0 0 0 127 0" result="hardAlpha"/>
<feOffset dy="1"/>
<feColorMatrix type="matrix" values="0 0 0 0 1 0 0 0 0 1 0 0 0 0 1 0 0 0 0.53 0"/>
<feBlend mode="normal" in2="BackgroundImageFix" result="effect1_dropShadow"/>
<feBlend mode="normal" in="SourceGraphic" in2="effect1_dropShadow" result="shape"/>
<feColorMatrix in="SourceAlpha" type="matrix" values="0 0 0 0 0 0 0 0 0 0 0 0 0 0 0 0 0 0 127 0" result="hardAlpha"/>
<feOffset dy="2"/>
<feGaussianBlur stdDeviation="2.5"/>
<feComposite in2="hardAlpha" operator="arithmetic" k2="-1" k3="1"/>
<feColorMatrix type="matrix" values="0 0 0 0 0 0 0 0 0 0 0 0 0 0 0 0 0 0 0.37 0"/>
<feBlend mode="normal" in2="shape" result="effect2_innerShadow"/>
</filter>
<filter id="filter1_d" x="5.88372" y="10.2093" width="37.3605" height="33.2907" filterUnits="userSpaceOnUse" color-interpolation-filters="sRGB">
<feFlood flood-opacity="0" result="BackgroundImageFix"/>
<feColorMatrix in="SourceAlpha" type="matrix" values="0 0 0 0 0 0 0 0 0 0 0 0 0 0 0 0 0 0 127 0" result="hardAlpha"/>
<feOffset dy="2"/>
<feGaussianBlur stdDeviation="2"/>
<feColorMatrix type="matrix" values="0 0 0 0 0 0 0 0 0 0 0 0 0 0 0 0 0 0 0.74 0"/>
<feBlend mode="normal" in2="BackgroundImageFix" result="effect1_dropShadow"/>
<feBlend mode="normal" in="SourceGraphic" in2="effect1_dropShadow" result="shape"/>
</filter>
<linearGradient id="paint0_linear" x1="12.7907" y1="44.4767" x2="34.8837" y2="-2.61628" gradientUnits="userSpaceOnUse">
<stop stop-color="#D5D5D5"/>
<stop offset="1" stop-color="white"/>
</linearGradient>
<linearGradient id="paint1_linear" x1="33.4914" y1="7.73406" x2="25" y2="46.5116" gradientUnits="userSpaceOnUse">
<stop stop-color="#25B5F8"/>
<stop offset="1" stop-color="#3570B6"/>
</linearGradient>
</defs>
</svg>
