<svg width="50" height="50" viewBox="0 0 50 50" fill="none" xmlns="http://www.w3.org/2000/svg">
<path d="M4 16C4 13.1337 4.00311 11.2246 4.12296 9.75775C4.23899 8.33759 4.4442 7.68774 4.65396 7.27606C5.2292 6.14708 6.14708 5.2292 7.27606 4.65396C7.68774 4.4442 8.33759 4.23899 9.75775 4.12296C11.2246 4.00311 13.1337 4 16 4H34C36.8663 4 38.7754 4.00311 40.2423 4.12296C41.6624 4.23899 42.3123 4.4442 42.7239 4.65396C43.8529 5.2292 44.7708 6.14709 45.346 7.27606C45.5558 7.68774 45.761 8.33759 45.877 9.75775C45.9969 11.2246 46 13.1337 46 16V34C46 36.8663 45.9969 38.7754 45.877 40.2423C45.761 41.6624 45.5558 42.3123 45.346 42.7239C44.7708 43.8529 43.8529 44.7708 42.7239 45.346C42.3123 45.5558 41.6624 45.761 40.2423 45.877C38.7754 45.9969 36.8663 46 34 46H16C13.1337 46 11.2246 45.9969 9.75775 45.877C8.33759 45.761 7.68774 45.5558 7.27606 45.346C6.14709 44.7708 5.2292 43.8529 4.65396 42.7239C4.4442 42.3123 4.23899 41.6624 4.12296 40.2423C4.00311 38.7754 4 36.8663 4 34V16Z" fill="#262626" stroke="black" stroke-width="8"/>
<path fill-rule="evenodd" clip-rule="evenodd" d="M9.30232 9.01166V10.4651L13.9535 12.7907L9.30232 15.407V16.8605L15.1163 13.6628V11.9186L9.30232 9.01166ZM23.8372 17.4419H17.4419V19.1861H23.8372V17.4419Z" fill="white"/>
</svg>
